<?xml version="1.0" standalone="no"?>
<!DOCTYPE svg PUBLIC "-//W3C//DTD SVG 20010904//EN"
 "http://www.w3.org/TR/2001/REC-SVG-20010904/DTD/svg10.dtd">
<svg version="1.0" xmlns="http://www.w3.org/2000/svg"
 width="1792.000000pt" height="1024.000000pt" viewBox="0 0 1792.000000 1024.000000"
 preserveAspectRatio="xMidYMid meet">

<g transform="translate(0.000000,1024.000000) scale(0.100000,-0.100000)"
fill="#000000" stroke="none">
<path d="M4703 9786 c-34 -17 -79 -48 -100 -68 -22 -21 -43 -38 -48 -38 -5 0
-46 -38 -91 -85 -63 -66 -86 -98 -103 -144 -11 -32 -21 -63 -21 -69 0 -21 -35
-53 -85 -79 -48 -24 -137 -81 -180 -113 -40 -30 -136 -131 -145 -153 -6 -12
-14 -29 -19 -37 -26 -41 -42 -90 -48 -141 -8 -77 1 -104 37 -119 36 -15 50
-37 50 -80 0 -32 -8 -50 -92 -210 -58 -111 -83 -241 -75 -386 3 -54 11 -115
18 -134 36 -102 83 -229 94 -255 71 -173 87 -221 104 -317 17 -95 -7 -143 -95
-184 -28 -13 -62 -34 -75 -45 -13 -12 -41 -32 -62 -46 -44 -28 -70 -67 -93
-141 -15 -46 -16 -65 -5 -148 14 -114 33 -155 115 -247 124 -139 227 -187 399
-187 106 0 147 -13 147 -46 0 -8 4 -14 8 -14 5 0 17 -18 27 -41 10 -22 31 -50
46 -62 28 -23 52 -64 63 -109 3 -16 11 -28 17 -28 16 0 39 -26 39 -44 0 -9 7
-16 15 -16 11 0 15 11 15 40 0 22 -4 40 -10 40 -5 0 -10 9 -10 20 0 11 5 20
10 20 6 0 10 9 10 20 0 11 5 20 10 20 6 0 10 9 10 20 0 11 -4 20 -10 20 -5 0
-10 9 -10 20 0 11 4 20 9 20 4 0 11 26 14 58 5 45 12 62 32 80 14 12 23 22 19
22 -3 0 -1 6 5 14 13 16 81 49 196 97 44 18 96 43 115 56 19 13 41 23 50 23 8
0 35 14 60 30 25 16 48 30 51 30 10 0 62 45 140 121 66 62 69 68 84 138 8 40
15 87 15 106 0 19 5 37 10 40 6 3 10 12 10 19 0 15 75 94 112 119 36 23 57 22
115 -7 55 -27 112 -25 139 5 9 10 19 39 21 63 5 41 3 47 -17 54 -13 5 -43 4
-69 -1 -110 -22 -175 -20 -239 7 -51 22 -65 24 -86 15 -32 -15 -35 -25 -46
-144 -10 -103 -35 -188 -84 -279 -14 -27 -26 -54 -26 -61 0 -12 -46 -59 -132
-134 -53 -47 -60 -49 -131 -56 -41 -4 -90 -4 -108 0 -113 24 -247 124 -293
217 -30 60 -35 146 -11 192 8 15 15 39 15 52 0 27 26 95 39 104 7 4 18 76 21
135 0 6 4 4 9 -3 6 -10 10 -3 15 23 4 20 14 39 22 42 7 3 14 12 14 19 0 8 11
19 25 24 14 5 25 16 25 23 0 16 101 45 210 59 71 10 80 8 165 -20 108 -36 165
-47 165 -32 0 5 -5 10 -11 10 -5 0 -7 4 -4 10 8 12 -68 85 -121 116 -64 38
-167 65 -284 74 -58 5 -133 12 -167 16 l-62 7 15 35 c8 20 24 44 34 54 11 11
20 22 20 26 1 11 88 102 98 102 5 0 17 9 26 19 24 27 152 88 201 97 22 3 64
13 94 20 30 8 91 17 135 20 45 3 89 10 98 15 9 5 33 9 53 9 20 0 55 4 78 9 23
6 54 12 70 16 20 4 27 11 27 29 0 17 -8 26 -27 33 -16 5 -50 18 -78 28 -27 9
-68 20 -89 22 -22 3 -46 12 -54 19 -7 8 -25 14 -39 14 -15 0 -36 11 -49 25
-13 14 -26 25 -29 25 -3 0 -9 0 -13 0 -4 0 -28 19 -53 43 -39 37 -64 54 -129
91 -8 5 -23 27 -32 48 -10 22 -21 37 -26 34 -6 -3 -15 7 -22 23 -6 16 -20 37
-31 47 -10 9 -19 27 -19 38 0 12 -9 27 -20 34 -11 7 -20 23 -20 37 0 14 -4 25
-10 25 -5 0 -10 8 -10 19 0 19 -23 45 -31 36 -3 -2 -22 30 -44 72 -21 43 -49
89 -62 102 -12 14 -23 28 -24 31 0 3 -1 24 -3 48 -1 24 -8 47 -15 51 -16 10
-15 52 1 121 11 45 18 56 36 58 13 2 27 14 32 27 5 13 22 32 37 42 15 9 37 27
48 38 11 12 27 24 35 28 8 4 33 18 55 32 22 14 47 28 55 31 8 3 27 10 43 16
15 6 27 14 27 18 0 5 3 15 6 24 4 10 1 16 -8 16 -22 0 -108 91 -114 120 -2 14
-9 39 -14 56 -6 17 -10 37 -10 46 0 38 -55 35 -137 -6z"/>
<path d="M9317 9106 c-13 -33 18 -82 62 -99 53 -22 68 -21 81 2 21 40 12 68
-26 86 -56 26 -110 31 -117 11z"/>
<path d="M8675 9031 c-69 -20 -105 -38 -195 -96 -118 -76 -200 -178 -245 -305
-15 -42 -15 -42 8 -36 193 55 327 78 186 32 -172 -56 -208 -75 -351 -185 -104
-79 -189 -242 -201 -386 l-6 -60 35 73 c19 39 38 72 42 72 20 0 92 -191 92
-243 -1 -21 -2 -20 -24 7 -23 28 -24 28 -43 9 -47 -47 -103 -200 -110 -303 -7
-98 18 -271 61 -430 18 -69 41 -161 51 -205 9 -44 22 -104 28 -134 l12 -53 50
6 c27 4 79 9 115 13 l66 6 23 66 c20 56 83 161 97 161 7 0 -15 -38 -26 -45
-17 -10 -56 -96 -70 -150 l-13 -50 -86 -22 -86 -22 65 5 c36 3 72 8 81 10 21
6 27 -17 33 -117 l5 -74 -11 83 -10 82 -42 0 c-24 0 -78 -3 -121 -7 l-77 -6 6
-51 c4 -28 9 -62 12 -76 4 -19 3 -21 -5 -10 -5 8 -13 37 -17 65 -9 69 -39 125
-66 125 -46 0 -102 -26 -145 -67 -195 -190 -96 -571 172 -663 63 -22 89 -26
65 -10 -13 9 -13 10 0 10 8 0 26 -3 39 -7 23 -6 23 -7 5 -14 -12 -4 1 -7 34
-7 l54 0 -7 84 c-9 98 3 405 16 425 17 27 28 -7 53 -156 32 -197 55 -304 70
-335 7 -14 16 -37 19 -51 10 -41 64 -107 106 -128 21 -11 41 -17 45 -14 3 4 6
2 6 -4 0 -22 45 -30 192 -32 27 -1 53 -7 62 -16 8 -8 28 -15 45 -15 21 0 31 5
31 15 0 17 36 21 42 4 6 -17 38 2 38 22 0 12 -7 19 -20 19 -11 0 -20 6 -20 14
0 9 7 12 20 9 17 -5 20 0 20 32 0 20 -7 43 -15 51 -8 9 -15 26 -15 40 0 14 -7
27 -15 30 -10 4 -15 20 -15 44 0 31 8 46 43 84 24 25 51 46 60 46 8 0 17 5 19
10 2 6 21 12 43 14 51 6 127 26 140 37 5 5 15 9 22 9 7 0 27 12 43 27 36 32
39 72 12 178 -15 58 -22 71 -43 76 -13 4 -19 7 -14 8 6 1 11 9 11 19 1 9 4 35
8 57 6 34 4 32 -12 -15 -78 -230 -239 -351 -462 -349 -41 0 -84 4 -95 9 -11 4
14 6 60 3 260 -17 477 168 492 420 13 204 -75 359 -260 458 -53 28 -76 34
-157 39 -52 4 -77 8 -55 8 35 2 48 10 95 57 30 30 60 55 67 55 7 0 13 4 13 9
0 7 95 71 107 71 3 0 19 6 36 14 104 44 252 73 443 86 87 5 200 14 249 20 50
5 124 12 165 15 89 8 263 40 319 60 41 14 41 14 47 -13 3 -15 33 -80 66 -145
85 -169 115 -258 154 -456 19 -96 34 -176 34 -178 0 -3 -25 -3 -55 -1 -30 1
-55 0 -55 -4 0 -5 27 -8 61 -8 55 0 83 -4 174 -26 l30 -7 -30 -7 c-16 -4 -51
-8 -77 -9 l-46 -1 0 -225 c1 -124 4 -225 8 -225 14 0 42 39 35 50 -3 5 -10 8
-15 5 -11 -7 -17 206 -9 290 l6 60 3 -50 3 -50 7 56 c9 68 15 79 44 79 52 0
86 12 86 31 0 20 -19 27 -90 31 -41 3 -45 6 -54 36 -6 21 -6 45 1 65 13 42 -9
270 -37 382 -11 44 -47 136 -80 205 -33 69 -60 134 -60 145 0 10 17 37 38 58
l37 39 -50 -35 c-46 -32 -73 -45 -100 -48 -5 -1 -26 -9 -45 -19 -57 -29 -178
-53 -285 -57 -224 -7 -327 -2 -333 16 -2 6 -12 11 -22 11 -10 0 -25 6 -32 14
-20 20 -71 44 -84 39 -6 -2 -18 7 -27 21 -12 17 -13 26 -5 28 6 2 -4 10 -23
17 -67 25 -121 52 -115 58 3 3 -14 18 -37 33 -70 46 -194 187 -221 252 -8 18
-18 37 -23 41 -4 5 -8 12 -8 16 0 7 -58 130 -81 171 -7 14 -14 39 -14 56 0 17
-6 37 -14 43 -8 7 -17 28 -20 49 -3 20 -8 54 -12 74 -3 21 -1 59 5 85 6 27 12
66 13 88 3 34 0 40 -22 45 -27 7 -12 10 119 26 39 5 49 9 37 16 -30 17 -111
109 -137 157 -24 42 -43 100 -39 117 3 12 -25 24 -55 23 -16 0 -57 -8 -90 -18z
m-48 -357 c-3 -3 -12 -4 -19 -1 -8 3 -5 6 6 6 11 1 17 -2 13 -5z m-50 -10 c-3
-3 -12 -4 -19 -1 -8 3 -5 6 6 6 11 1 17 -2 13 -5z m36 -1481 c-7 -2 -19 -2
-25 0 -7 3 -2 5 12 5 14 0 19 -2 13 -5z m73 -22 c-3 -5 16 -12 42 -15 111 -16
200 -58 285 -137 64 -58 102 -119 80 -126 -6 -2 -9 -12 -6 -21 3 -14 -2 -18
-24 -17 -15 0 -46 -5 -68 -11 -35 -10 -42 -17 -59 -60 -38 -101 -48 -120 -76
-142 -16 -12 -43 -24 -62 -27 l-33 -5 35 11 c71 22 110 81 110 167 0 60 -30
109 -80 134 -27 14 -30 18 -14 18 11 0 29 -9 39 -20 28 -31 51 -26 58 14 3 18
17 45 31 59 36 36 33 52 -18 82 -82 48 -154 68 -240 67 -69 0 -88 -5 -151 -36
-95 -47 -183 -138 -209 -217 -24 -73 -32 -195 -17 -256 21 -82 71 -175 120
-221 39 -37 42 -41 16 -29 -58 29 -102 97 -136 208 -18 59 -21 87 -16 168 3
53 12 116 21 140 35 94 164 211 271 245 33 10 69 22 80 27 27 10 27 10 21 0z
m-332 -718 l26 -48 -24 29 c-21 26 -40 66 -31 66 2 0 15 -21 29 -47z m57 -80
c13 -16 12 -17 -3 -4 -10 7 -18 15 -18 17 0 8 8 3 21 -13z m127 -69 c20 -7 29
-13 19 -14 -20 0 -113 45 -122 60 -3 5 10 0 30 -11 20 -12 53 -28 73 -35z
m136 26 c74 0 87 2 82 15 -3 9 0 15 10 15 8 0 12 -4 9 -10 -3 -5 3 -10 15 -10
12 0 19 4 16 8 -2 4 7 9 22 10 l27 1 -25 -13 c-51 -28 -136 -38 -211 -26 -63
9 -109 24 -109 34 0 2 17 -2 38 -10 20 -7 77 -13 126 -14z m94 -77 c-10 -2
-26 -2 -35 0 -10 3 -2 5 17 5 19 0 27 -2 18 -5z"/>
<path d="M8900 6865 c7 -9 15 -13 17 -11 7 7 -7 26 -19 26 -6 0 -6 -6 2 -15z"/>
<path d="M2072 7589 c-102 -20 -302 -143 -370 -228 -24 -30 -57 -53 -115 -80
-90 -42 -218 -151 -249 -212 -26 -52 -98 -218 -121 -279 -28 -77 -28 -257 2
-393 22 -102 67 -266 76 -275 2 -3 -11 -22 -30 -43 -42 -47 -59 -106 -50 -178
12 -94 49 -161 107 -196 31 -18 31 -16 -13 33 -52 58 -69 107 -69 202 0 69 15
106 60 144 30 25 70 33 104 20 19 -7 21 -34 3 -34 -24 0 -87 -75 -93 -111 -4
-28 3 -49 40 -112 24 -42 55 -86 68 -97 24 -20 93 -47 138 -53 14 -2 26 -11
28 -20 4 -21 -31 -30 -100 -25 l-54 3 39 -70 c41 -75 107 -149 160 -179 17
-10 26 -13 20 -5 -7 7 -13 18 -13 23 0 6 8 0 18 -13 63 -82 179 -172 291 -225
l61 -30 0 -67 0 -67 -81 -31 c-124 -48 -194 -103 -258 -205 -39 -63 -121 -271
-156 -396 -15 -52 -33 -102 -40 -110 -14 -16 -26 -172 -14 -184 8 -8 72 14 81
28 4 6 8 41 8 79 0 59 2 67 19 67 14 0 18 5 14 20 -6 24 13 96 74 279 60 179
92 246 147 307 68 77 190 118 260 89 41 -18 49 -18 41 -5 -12 20 82 94 152
120 l68 24 -110 17 c-109 17 -152 28 -210 54 -135 60 -159 73 -206 118 -11 9
-19 14 -19 11 0 -12 -45 40 -73 83 -15 24 -27 55 -27 70 0 16 4 23 8 17 4 -6
35 -10 69 -10 50 1 66 5 82 23 12 12 21 29 21 37 0 8 5 16 11 18 6 2 13 18 15
36 2 18 9 42 15 54 6 11 15 33 19 47 4 14 11 33 15 42 3 9 0 23 -9 31 -8 9
-29 42 -47 74 -28 53 -32 70 -37 167 -5 107 -5 107 -31 108 -35 2 72 17 132
18 l47 1 0 -54 c0 -91 26 -153 95 -223 52 -53 66 -62 108 -68 86 -13 212 45
269 124 39 55 68 139 68 199 l0 52 63 0 63 0 12 -85 c12 -91 44 -168 95 -231
81 -98 246 -99 332 -3 l30 34 -35 -32 c-34 -31 -88 -58 -97 -49 -3 2 6 7 19
11 13 4 38 21 56 39 61 57 94 130 112 251 l8 50 1 -42 c0 -23 -10 -77 -23
-119 -14 -42 -21 -73 -16 -68 16 17 50 146 50 190 0 49 -31 135 -65 179 -12
17 -41 41 -63 55 -39 24 -40 27 -44 91 -3 39 -14 85 -27 111 -25 53 -27 95 -5
119 16 17 15 18 -17 7 -76 -25 -153 -57 -139 -57 8 -1 35 8 59 19 53 24 51 24
51 0 0 -11 9 -43 21 -72 11 -29 26 -84 33 -121 13 -63 13 -68 -3 -61 -26 11
-197 17 -215 7 -12 -7 1 -9 41 -8 32 1 41 0 20 -2 -47 -5 -109 -63 -147 -136
l-25 -49 -68 6 c-56 5 -69 4 -74 -10 -4 -10 -13 2 -27 38 -12 29 -26 53 -31
53 -17 0 -36 16 -30 25 3 5 -13 24 -36 44 -76 65 -196 70 -288 13 -20 -12 -40
-22 -46 -22 -14 0 -63 -93 -71 -132 l-6 -33 -112 2 c-64 1 -86 3 -51 5 66 4
85 18 85 64 0 17 -8 34 -21 43 -24 17 -49 60 -49 86 0 10 -7 23 -15 30 -13 11
-13 16 1 48 8 21 35 68 60 106 l46 68 91 -6 c51 -4 148 -13 217 -21 232 -25
308 -27 439 -11 68 8 126 18 130 22 3 4 -12 4 -34 1 -101 -15 -175 -17 -235
-7 -77 14 -213 29 -255 30 -23 0 -27 2 -15 10 12 8 10 10 -10 11 -14 1 -31 1
-37 0 -7 -1 -13 3 -13 9 0 5 -6 10 -14 10 -23 0 -177 81 -183 96 -3 8 -12 14
-20 14 -30 0 -76 67 -98 145 -23 77 -17 227 10 271 27 42 94 101 141 124 45
21 137 44 224 55 66 9 62 11 -57 24 -50 5 -105 17 -121 25 -25 13 -28 19 -24
47 3 18 15 44 28 58 13 14 24 29 24 32 0 4 13 12 30 19 62 26 6 38 -88 19z
m-227 -891 c46 -29 84 -57 85 -62 0 -5 -23 -45 -51 -88 -52 -82 -86 -156 -134
-293 -31 -87 -41 -105 -60 -105 -7 0 -12 18 -12 53 0 28 -12 95 -27 147 -35
123 -34 257 2 333 39 83 82 86 197 15z m468 -335 c-18 -2 -48 -2 -65 0 -18 2
-4 4 32 4 36 0 50 -2 33 -4z m18 -28 c106 -38 152 -109 153 -235 0 -124 -56
-224 -151 -267 -69 -32 -134 -28 -193 11 -22 14 -40 23 -40 20 0 -4 -7 -1 -16
7 -23 19 -74 125 -73 151 1 19 2 17 8 -7 9 -37 57 -131 71 -140 16 -10 12 2
-20 54 -19 30 -36 78 -45 124 -13 70 -13 77 5 115 11 23 20 46 20 51 0 16 71
92 105 113 37 22 116 24 176 3z m653 2 c10 -7 22 -29 27 -47 l8 -35 -2 32 c-3
28 -1 31 15 22 53 -28 118 -130 118 -185 0 -14 -86 -31 -97 -20 -4 4 -10 41
-13 84 -4 53 -9 71 -15 59 -4 -11 -4 -49 1 -85 l9 -67 59 1 58 1 -6 -49 c-19
-141 -118 -258 -219 -258 -56 0 -87 17 -148 79 -45 46 -59 69 -70 112 -20 80
-16 178 9 231 28 57 91 118 134 128 52 13 113 11 132 -3z m104 -36 c22 -22 46
-50 53 -63 6 -13 -7 -2 -31 25 -23 26 -51 54 -63 62 -12 8 -16 15 -10 15 6 0
29 -18 51 -39z m-1016 -3 c-7 -7 -12 -8 -12 -2 0 14 12 26 19 19 2 -3 -1 -11
-7 -17z m-364 -230 c-20 -92 -49 -177 -68 -200 l-20 -23 6 30 c4 17 13 41 21
54 8 13 17 49 20 81 4 47 8 85 12 98 1 1 10 2 20 2 17 0 18 -4 9 -42z m539
-269 c48 -1 48 -1 15 -10 -26 -8 -44 -6 -78 7 -25 9 -47 21 -50 25 -2 5 11 2
30 -6 20 -8 57 -15 83 -16z"/>
<path d="M2217 6200 c-31 -24 -50 -78 -41 -114 8 -35 49 -76 75 -76 11 0 36
15 55 34 26 26 34 42 34 70 0 47 -17 81 -47 95 -34 15 -47 14 -76 -9z"/>
<path d="M2801 6191 c-22 -22 -36 -79 -27 -109 10 -31 46 -72 62 -72 8 0 26
11 39 25 37 37 35 106 -4 146 -35 34 -44 36 -70 10z"/>
<path d="M15095 7569 c93 -22 396 -71 402 -65 12 12 -93 47 -167 56 -47 5
-103 14 -125 20 -22 5 -74 9 -115 9 l-75 -1 80 -19z"/>
<path d="M2478 7559 c34 -17 45 -19 57 -9 24 20 7 30 -48 30 l-52 0 43 -21z"/>
<path d="M15671 7570 c28 -11 39 -35 39 -82 0 -23 -4 -28 -24 -28 -14 0 -28
-4 -31 -10 -3 -5 -17 -10 -30 -10 -12 0 -25 -7 -29 -15 -3 -8 -12 -15 -21 -15
-8 0 -15 -4 -15 -10 0 -5 9 -10 20 -10 44 0 218 -70 315 -128 100 -59 165
-130 165 -182 0 -11 5 -20 10 -20 21 0 9 -94 -18 -147 -27 -51 -124 -163 -143
-163 -5 0 -9 -7 -9 -15 0 -8 -12 -18 -27 -21 -25 -7 -25 -8 -8 -15 17 -7 16
-8 -7 -8 -15 -1 -29 -5 -32 -10 -3 -4 -17 -6 -31 -3 -16 3 -25 0 -25 -8 0 -7
-7 -10 -16 -6 -9 4 -44 0 -78 -8 -33 -8 -68 -14 -76 -14 -8 0 -26 -3 -40 -6
-14 -3 -61 -10 -105 -16 -44 -5 -96 -14 -115 -20 -20 -7 -108 -12 -200 -12
l-165 -1 115 -14 c132 -16 368 -11 520 12 130 19 222 35 230 40 9 6 50 -24 50
-36 0 -5 11 -22 24 -36 14 -15 33 -42 43 -62 10 -20 21 -38 25 -41 11 -8 68
-140 68 -157 0 -33 34 -115 53 -128 19 -14 8 -15 -111 -15 -99 0 -132 3 -132
13 0 21 -50 121 -73 145 -31 34 -109 71 -162 79 -30 4 -68 0 -112 -12 -54 -15
-75 -27 -112 -65 -86 -88 -94 -108 -89 -242 3 -104 3 -104 47 -171 49 -76 86
-103 163 -118 74 -15 147 6 217 62 67 53 100 111 115 202 7 39 15 71 19 70 4
-2 61 -3 127 -3 107 0 119 -2 113 -17 -4 -11 -3 -14 5 -9 11 7 18 -41 12 -83
-2 -21 23 -101 33 -101 4 0 6 -4 3 -9 -4 -5 -3 -11 1 -13 5 -2 22 -19 38 -38
l30 -35 -33 30 -34 30 9 -40 c12 -60 8 -136 -8 -146 -12 -7 -12 -9 1 -9 12 0
12 -2 2 -8 -7 -5 -15 -33 -19 -63 -3 -30 -10 -59 -15 -66 -5 -7 -8 -35 -7 -63
3 -50 1 -53 -51 -107 -107 -111 -280 -204 -438 -235 -73 -15 -99 -24 -86 -29
10 -4 15 -8 9 -8 -6 -1 -5 -4 1 -9 22 -14 64 -85 64 -108 0 -15 -10 -29 -27
-38 -42 -23 -17 -19 71 10 65 22 84 25 115 16 20 -5 59 -15 86 -21 160 -37
297 -210 369 -466 14 -49 28 -115 32 -147 5 -49 4 -57 -12 -61 -14 -3 -11 -5
7 -6 15 0 31 -7 37 -13 16 -20 31 -137 18 -142 -6 -2 -1 -5 12 -5 21 -1 22 2
22 84 0 61 -4 86 -14 92 -8 4 -22 46 -31 93 -32 158 -103 328 -178 428 -64 85
-197 167 -320 198 -33 8 -47 37 -47 98 0 50 13 65 83 95 77 33 177 103 242
170 33 33 65 61 73 61 24 0 89 39 114 69 14 16 36 54 48 84 22 53 26 57 81 77
118 43 190 124 210 238 15 86 0 140 -57 195 -40 39 -42 43 -29 68 24 46 82
250 100 353 23 130 16 241 -23 356 -41 121 -57 148 -140 240 -80 87 -130 119
-189 121 -69 2 -83 11 -106 66 -27 63 -96 123 -170 147 -29 9 -79 34 -112 56
-81 53 -144 79 -202 85 -41 4 -44 4 -22 -5z m638 -662 c17 -18 47 -66 67 -106
l36 -73 -4 -112 c-3 -74 -10 -124 -21 -147 -9 -19 -23 -62 -33 -95 -9 -32 -23
-65 -30 -73 -8 -7 -14 -19 -14 -27 0 -7 -7 -15 -15 -18 -8 -4 -17 -27 -21 -57
l-7 -51 -54 3 -54 3 -23 65 c-34 96 -96 215 -159 302 -78 108 -78 112 1 170
31 23 77 64 102 92 155 170 175 181 229 124z m-626 -555 c108 -55 137 -106
150 -268 2 -22 -2 -60 -8 -85 -12 -43 -12 -40 -8 40 13 206 -59 308 -227 321
l-75 6 68 1 c46 1 78 -3 100 -15z m24 -39 c35 -21 55 -43 72 -78 57 -113 28
-336 -49 -384 l-25 -16 24 27 c34 37 21 34 -29 -8 -22 -19 -57 -39 -77 -44
-61 -17 -175 18 -211 63 -11 14 -22 23 -25 20 -8 -8 -47 56 -47 76 0 8 9 -5
20 -29 30 -65 32 -46 4 34 -41 121 -30 221 32 293 57 67 95 83 186 79 64 -3
85 -9 125 -33z m788 -206 c14 -6 25 -15 25 -20 0 -5 11 -21 25 -36 33 -35 57
-115 49 -162 -24 -135 -152 -249 -279 -250 -77 0 -81 6 -56 81 11 35 21 69 21
77 0 8 11 27 25 44 30 35 34 22 4 -16 -27 -34 -17 -62 29 -82 51 -21 87 -10
143 46 38 38 49 58 60 103 11 50 10 61 -6 97 -23 51 -53 70 -110 70 -51 0 -60
18 -23 44 27 19 58 20 93 4z m-255 -4 l35 -6 -3 -120 c-1 -66 -6 -127 -11
-135 -17 -31 -47 23 -70 125 -12 53 -24 107 -27 120 -7 24 7 27 76 16z m-717
-311 c-7 -2 -19 -2 -25 0 -7 3 -2 5 12 5 14 0 19 -2 13 -5z m54 -9 c-3 -3 -12
-4 -19 -1 -8 3 -5 6 6 6 11 1 17 -2 13 -5z"/>
<path d="M15518 6191 c-28 -25 -33 -36 -33 -75 0 -78 72 -130 136 -96 22 13
49 61 49 90 0 37 -30 81 -65 96 -46 19 -50 18 -87 -15z"/>
<path d="M15381 6002 c-1 -18 55 -138 68 -146 6 -4 11 -5 11 -3 0 12 -79 160
-79 149z"/>
<path d="M4865 7386 c-65 -29 -127 -107 -133 -166 -8 -82 46 -155 143 -196 53
-22 109 -5 169 50 51 47 66 79 66 139 -1 134 -129 224 -245 173z"/>
<path d="M6081 7254 c-22 -28 -24 -39 -21 -89 4 -64 45 -104 104 -105 31 0 45
7 77 39 55 55 55 96 -3 145 -35 30 -49 36 -89 36 -39 0 -51 -4 -68 -26z"/>
<path d="M9784 7180 c-125 -28 -279 -175 -308 -293 -5 -22 -11 -27 -24 -22
-48 19 -135 27 -216 20 l-88 -7 8 -36 c4 -21 10 -55 14 -77 l7 -40 3 35 c2 19
3 42 2 51 -2 22 26 29 119 29 76 0 138 -14 151 -34 4 -6 8 -31 8 -55 0 -141
56 -286 140 -365 28 -26 86 -64 134 -87 78 -38 89 -40 172 -40 142 1 179 16
284 120 77 76 94 100 126 172 32 72 37 94 35 149 -2 88 -19 177 -41 219 -28
54 -116 148 -166 177 -24 14 -44 28 -44 30 0 11 80 -38 125 -77 39 -33 43 -36
20 -10 -40 44 -135 108 -188 127 -45 17 -220 26 -273 14z m193 -6 c-3 -3 -12
-4 -19 -1 -8 3 -5 6 6 6 11 1 17 -2 13 -5z m40 -10 c-3 -3 -12 -4 -19 -1 -8 3
-5 6 6 6 11 1 17 -2 13 -5z m-52 -24 c80 -12 178 -61 238 -118 74 -72 117
-194 117 -333 0 -60 -5 -77 -41 -146 -50 -96 -110 -154 -209 -202 -69 -33 -82
-36 -165 -36 -81 0 -96 4 -150 31 -103 54 -130 71 -127 84 1 6 -1 9 -6 6 -11
-7 -74 83 -103 149 -31 69 -30 207 2 309 19 61 31 80 86 133 64 64 134 107
200 122 52 12 77 12 158 1z m-108 -856 c-3 -3 -12 -4 -19 -1 -8 3 -5 6 6 6 11
1 17 -2 13 -5z m136 -1 c-7 -2 -19 -2 -25 0 -7 3 -2 5 12 5 14 0 19 -2 13 -5z"/>
<path d="M9795 6910 c-43 -18 -78 -67 -83 -118 -9 -101 42 -172 122 -172 53 0
91 27 117 84 24 53 24 90 -2 143 -30 63 -93 89 -154 63z"/>
<path d="M9210 6810 c0 -5 17 -12 38 -15 73 -12 84 -16 108 -42 30 -32 43 -22
37 30 l-5 37 -89 0 c-50 0 -89 -4 -89 -10z"/>
<path d="M10370 6750 c0 -17 7 -20 44 -20 35 0 45 4 49 20 5 18 0 20 -44 20
-42 0 -49 -3 -49 -20z"/>
<path d="M10652 6658 c-20 -25 -2 -68 35 -83 46 -19 59 -19 68 2 4 13 -5 28
-35 55 -46 42 -53 44 -68 26z"/>
<path d="M14788 6633 c16 -6 15 -56 -3 -126 -20 -76 -22 -112 -7 -130 10 -12
7 -17 -18 -27 -69 -29 -136 -134 -156 -246 -5 -30 21 -134 47 -188 22 -46 23
-50 8 -40 -29 18 27 -47 61 -71 116 -80 245 -65 338 40 35 40 45 61 66 148
l25 102 -4 -68 c-3 -60 -2 -67 11 -56 12 10 14 28 11 80 -3 37 -1 72 3 79 5 8
27 11 69 8 52 -3 61 -2 61 13 0 22 -20 29 -90 29 l-58 0 -21 43 c-22 45 -87
128 -99 125 -4 0 -25 7 -47 17 -31 14 -56 16 -114 12 l-74 -6 6 63 c3 34 15
86 26 115 12 28 21 55 21 59 0 8 -49 32 -64 31 -6 0 -5 -3 2 -6z m218 -313
c44 -41 103 -139 109 -183 11 -71 -34 -220 -83 -279 -61 -72 -161 -87 -248
-37 -76 43 -119 97 -140 176 l-18 66 30 23 c16 13 40 24 54 25 14 1 -1 7 -32
13 l-58 11 24 51 c13 28 49 76 80 108 l56 58 99 -4 c90 -3 102 -5 127 -28z
m99 -93 c20 -37 34 -75 32 -85 -4 -13 -5 -13 -6 4 0 11 -23 58 -51 104 -27 46
-50 86 -50 89 1 13 42 -48 75 -112z m-325 -428 c17 -6 29 -13 26 -16 -9 -9
-92 35 -116 63 -24 27 -24 27 17 -4 23 -18 56 -37 73 -43z"/>
<path d="M14766 6243 c-9 -26 -16 -56 -16 -67 1 -21 1 -21 15 -2 14 19 15 18
15 -17 0 -23 -5 -37 -12 -37 -10 0 -10 -2 -1 -8 8 -5 9 -38 4 -122 -8 -113 -7
-130 5 -117 9 8 21 417 12 417 -3 0 -13 -21 -22 -47z"/>
<path d="M14926 6169 c-14 -17 -26 -39 -26 -49 0 -48 48 -120 80 -120 9 0 27
12 41 26 18 20 24 37 24 73 0 96 -65 134 -119 70z"/>
<path d="M10501 6364 c0 -11 3 -14 6 -6 3 7 2 16 -1 19 -3 4 -6 -2 -5 -13z"/>
<path d="M2455 6280 c3 -5 8 -10 11 -10 2 0 4 5 4 10 0 6 -5 10 -11 10 -5 0
-7 -4 -4 -10z"/>
<path d="M15120 6261 c16 -31 32 -36 18 -7 -6 14 -15 26 -20 26 -5 0 -4 -9 2
-19z"/>
<path d="M8977 6133 c-29 -28 32 -83 133 -120 151 -56 388 -27 486 59 38 33
41 43 19 52 -8 3 -26 -6 -40 -20 -36 -35 -99 -61 -182 -74 -129 -20 -300 18
-368 82 -33 30 -38 32 -48 21z"/>
<path d="M2622 6080 c-1 -38 13 -106 19 -95 3 6 0 35 -7 65 -6 30 -12 44 -12
30z"/>
<path d="M10443 6013 c9 -2 25 -2 35 0 9 3 1 5 -18 5 -19 0 -27 -2 -17 -5z"/>
<path d="M2521 5974 c0 -11 3 -14 6 -6 3 7 2 16 -1 19 -3 4 -6 -2 -5 -13z"/>
<path d="M15311 5924 c0 -11 3 -14 6 -6 3 7 2 16 -1 19 -3 4 -6 -2 -5 -13z"/>
<path d="M2680 5895 c0 -5 5 -17 10 -25 5 -8 10 -10 10 -5 0 6 -5 17 -10 25
-5 8 -10 11 -10 5z"/>
<path d="M2390 5681 c0 -16 58 -59 96 -71 83 -28 243 8 253 56 3 18 3 19 -17
1 -70 -63 -246 -59 -301 6 -15 18 -31 22 -31 8z"/>
<path d="M15060 5683 c0 -22 34 -53 75 -68 92 -36 295 2 295 54 0 26 -1 26
-46 -4 -92 -62 -214 -60 -296 5 -16 12 -28 18 -28 13z"/>
<path d="M5302 5303 c-22 -4 -72 -66 -72 -90 0 -18 -18 -50 -57 -100 -57 -72
-37 -106 70 -118 51 -6 62 -4 104 20 25 15 62 45 82 66 19 22 39 39 44 39 5 0
31 18 57 40 26 22 53 40 59 40 6 0 11 4 11 9 0 5 9 13 20 16 90 29 -202 100
-318 78z"/>
<path d="M9012 5186 c1 -88 -10 -110 -42 -81 -16 15 -20 15 -20 3 0 -23 69
-89 114 -109 43 -18 174 -45 182 -36 3 2 -11 8 -31 11 -33 7 -35 9 -30 39 10
56 115 171 193 211 17 9 32 18 32 19 0 2 -42 4 -92 4 -51 1 -141 5 -200 8
l-108 7 2 -76z"/>
<path d="M8848 5038 c-46 -24 -91 -44 -99 -46 -8 -2 -43 -18 -79 -35 -131 -64
-259 -224 -331 -414 -68 -180 -122 -429 -97 -444 7 -5 47 -11 90 -15 44 -4 79
-11 81 -18 8 -20 -5 -106 -15 -106 -6 0 -8 -11 -6 -25 3 -14 1 -28 -3 -31 -5
-3 -9 0 -9 5 0 6 -6 11 -14 11 -9 0 -12 7 -9 20 3 11 9 20 14 20 5 0 9 9 9 20
0 11 -4 20 -10 20 -14 0 -12 37 3 44 6 3 2 3 -10 0 -13 -3 -23 -1 -23 4 0 24
-142 53 -155 32 -11 -18 -18 -124 -11 -164 6 -33 9 -36 32 -30 48 12 179 7
234 -9 l55 -15 -132 1 -132 2 5 -25 c21 -128 44 -287 44 -313 0 -68 193 -397
233 -397 4 0 -6 15 -22 33 -39 40 -39 47 -1 47 24 0 33 -6 41 -27 5 -15 9 -38
7 -52 -2 -20 1 -25 15 -23 9 2 17 2 17 0 0 -46 44 -623 55 -722 8 -76 15 -169
15 -206 0 -38 5 -72 11 -75 6 -4 8 -13 6 -19 -17 -43 108 -43 158 0 15 13 35
24 44 25 9 1 5 4 -9 8 -29 8 -27 -14 -16 266 7 197 8 202 31 355 17 107 31
160 45 160 4 0 10 9 13 20 3 11 21 27 41 35 20 9 45 24 55 34 11 11 47 24 90
31 39 6 69 16 65 21 -18 30 144 40 174 12 10 -10 27 -23 38 -29 10 -6 19 -17
19 -25 0 -11 -18 -14 -80 -13 -44 1 -58 -1 -32 -3 44 -4 50 -7 63 -39 37 -88
96 -795 70 -846 -6 -14 -2 -20 18 -28 15 -5 37 -20 50 -33 l24 -24 -35 -14
c-31 -12 -32 -14 -13 -21 16 -6 19 -13 14 -34 -6 -24 -5 -26 12 -19 10 4 41
11 68 15 26 4 52 13 57 21 26 44 26 44 156 50 l128 6 -117 1 c-87 2 -118 5
-118 15 0 8 -4 7 -10 -3 -7 -11 -10 -7 -10 18 0 23 -5 32 -17 33 -10 1 -4 5
12 9 17 4 22 8 13 9 -19 1 -21 14 -18 136 0 33 -4 128 -10 210 -6 83 -15 218
-20 301 -11 187 -27 229 -105 275 -71 41 -81 51 -87 81 -4 20 1 31 21 46 14
10 37 21 51 24 206 47 350 92 448 142 28 14 56 26 61 26 5 0 14 -19 19 -42 6
-25 10 -33 11 -20 1 28 17 59 44 90 26 28 19 28 -37 0 -53 -25 -72 -17 -82 39
-5 27 -2 39 17 61 13 15 6 11 -15 -10 -32 -30 -38 -40 -32 -62 4 -16 17 -31
34 -38 26 -10 25 -11 -54 -49 -161 -76 -353 -112 -599 -111 -267 0 -442 35
-607 118 -26 13 -71 29 -100 35 -61 13 -99 30 -119 55 -13 17 -13 17 12 0 15
-9 59 -23 100 -32 40 -8 96 -28 124 -43 54 -30 175 -75 182 -68 2 2 -11 10
-29 16 -41 16 -99 43 -77 37 13 -3 18 4 22 27 27 157 40 256 46 337 9 131 -5
789 -19 875 -6 39 -16 95 -21 125 -5 30 -12 91 -15 135 -6 79 -6 80 26 118 21
24 41 37 57 37 13 0 33 5 44 10 10 6 35 11 54 12 l36 1 -43 44 c-23 23 -43 43
-43 43 -1 0 -40 -19 -87 -42z m-245 -408 c-3 -49 -15 -92 -58 -195 -6 -16 -18
-46 -25 -65 -7 -19 -19 -42 -25 -50 -7 -8 -20 -30 -29 -47 -9 -18 -23 -33 -32
-33 -8 0 -17 -6 -20 -14 -3 -8 -11 -17 -19 -20 -16 -6 -11 55 11 126 8 26 14
65 14 87 0 23 5 41 10 41 6 0 10 13 10 29 0 16 7 36 15 45 8 8 15 24 15 36 0
30 88 122 114 118 19 -3 21 -9 19 -58z m-56 -837 c-3 -10 -5 -2 -5 17 0 19 2
27 5 18 2 -10 2 -26 0 -35z m46 -343 c14 -23 15 -28 4 -24 -16 6 -41 54 -29
54 4 0 16 -13 25 -30z"/>
<path d="M9510 5010 c-8 -5 -10 -10 -5 -10 6 0 17 5 25 10 8 5 11 10 5 10 -5
0 -17 -5 -25 -10z"/>
<path d="M2408 4958 c-2 -23 -10 -36 -28 -45 -18 -9 -20 -13 -7 -13 23 0 57
35 57 59 0 34 -19 33 -22 -1z"/>
<path d="M15349 4969 c-9 -17 -7 -25 12 -45 12 -13 30 -24 38 -24 14 1 13 2
-1 11 -12 6 -18 22 -18 44 0 39 -14 45 -31 14z"/>
<path d="M15911 4517 c-1 -4 11 -60 25 -125 14 -64 30 -155 34 -202 5 -47 17
-105 28 -130 42 -95 38 -182 -11 -237 -26 -29 -19 -29 39 -1 44 22 46 24 40
58 -3 19 -9 68 -13 108 l-6 72 95 0 c127 0 131 -5 113 -145 -5 -38 -8 -74 -7
-78 1 -4 -2 -16 -7 -26 -6 -10 -15 -69 -22 -132 -9 -99 -15 -120 -40 -157 -23
-34 -25 -40 -9 -32 26 14 78 123 90 190 17 98 50 348 50 380 l0 32 -154 -7
-155 -8 -10 41 c-6 22 -11 64 -10 94 1 29 -9 100 -24 158 -24 99 -45 165 -46
147z"/>
<path d="M1880 4438 c-11 -40 -28 -98 -38 -128 -11 -37 -15 -71 -11 -105 l6
-50 2 45 c1 39 48 244 67 293 3 9 4 17 0 17 -3 0 -14 -33 -26 -72z"/>
<path d="M9957 4385 c2 -38 8 -88 13 -110 14 -73 10 12 -5 100 l-14 80 6 -70z"/>
<path d="M9982 4200 c0 -19 2 -27 5 -17 2 9 2 25 0 35 -3 9 -5 1 -5 -18z"/>
<path d="M9991 4138 c-1 -32 38 -407 49 -463 4 -24 5 0 2 63 -5 96 -4 102 14
102 11 0 24 -4 30 -9 12 -11 264 9 264 22 0 7 -54 8 -155 3 l-155 -6 -10 24
c-5 14 -11 66 -14 118 -2 51 -7 100 -10 108 -3 8 -7 26 -9 40 l-4 25 -2 -27z"/>
<path d="M1821 4114 c0 -11 3 -14 6 -6 3 7 2 16 -1 19 -3 4 -6 -2 -5 -13z"/>
<path d="M4761 4094 c0 -11 3 -14 6 -6 3 7 2 16 -1 19 -3 4 -6 -2 -5 -13z"/>
<path d="M1505 4090 c-3 -5 1 -61 9 -122 9 -62 15 -160 13 -218 -2 -103 -1
-107 33 -175 19 -38 46 -76 60 -84 19 -11 22 -12 13 -1 -16 18 -17 34 -1 24 8
-5 9 4 4 32 -3 21 -11 71 -16 109 -5 39 -18 105 -29 148 -12 43 -23 107 -27
141 -6 57 -4 65 19 91 22 26 32 30 97 33 l73 4 -7 -41 c-3 -23 -9 -74 -13
-115 -5 -70 -5 -74 17 -81 12 -4 40 -23 63 -44 30 -27 37 -30 28 -13 -6 12
-30 34 -51 48 -28 19 -40 34 -40 51 0 45 22 168 32 181 6 7 8 15 6 18 -3 3
-63 7 -132 9 -70 2 -131 7 -136 10 -5 3 -11 1 -15 -5z"/>
<path d="M2849 4096 c-2 -3 -30 -6 -62 -8 -46 -2 -57 -6 -57 -20 0 -9 5 -20
10 -23 6 -3 10 0 10 8 0 11 18 17 63 22 67 8 112 24 66 25 -14 0 -28 -2 -30
-4z"/>
<path d="M4695 4081 c3 -10 -1 -24 -10 -31 -8 -7 -15 -23 -15 -35 0 -12 -7
-28 -15 -35 -8 -7 -13 -15 -10 -19 2 -4 -3 -20 -11 -35 -7 -16 -14 -41 -14
-57 0 -15 -4 -30 -9 -34 -11 -6 -61 -112 -59 -123 1 -4 -1 -14 -5 -22 -3 -8
-8 -26 -10 -40 -41 -202 -59 -244 -111 -269 -59 -29 -139 -33 -187 -10 -21 11
-42 19 -47 19 -5 0 -15 7 -22 15 -7 8 -25 15 -41 15 -31 0 -42 20 -11 20 15 1
15 2 -3 16 -13 11 -16 18 -8 21 16 6 -6 43 -26 43 -11 0 -12 -12 -7 -57 4 -32
8 -64 8 -70 1 -7 5 -13 9 -13 5 0 6 -14 4 -32 -2 -17 2 -43 10 -57 7 -15 15
-53 16 -86 2 -50 0 -59 -17 -66 -10 -4 136 -8 325 -8 327 -1 343 0 329 17 -17
20 -25 132 -9 132 12 0 16 92 5 103 -7 7 -18 118 -16 157 17 285 23 373 28
413 5 39 3 47 -10 47 -9 0 -16 8 -16 20 0 11 -4 20 -10 20 -5 0 -10 14 -10 30
0 21 -5 30 -16 30 -10 0 -13 -6 -9 -19z"/>
<path d="M14915 4082 c12 -12 105 -21 105 -10 0 5 -8 8 -17 8 -10 0 -36 3 -58
6 -27 5 -37 3 -30 -4z"/>
<path d="M2750 3898 c0 -45 8 -55 41 -50 23 3 37 -2 60 -24 34 -32 43 -26 55
34 9 48 -7 60 -87 64 -69 3 -69 3 -69 -24z"/>
<path d="M1770 3728 c0 -2 11 -32 25 -66 30 -73 33 -142 8 -165 -10 -8 -38
-20 -62 -27 l-44 -11 8 -62 c4 -34 9 -186 10 -337 3 -269 3 -275 24 -286 33
-17 33 -18 11 -73 -11 -28 -25 -83 -31 -121 l-12 -70 -196 0 c-196 0 -427 15
-701 45 -175 20 -490 18 -490 -2 0 -10 29 -13 113 -13 110 0 275 -10 532 -30
72 -6 245 -17 385 -26 140 -8 305 -21 365 -29 167 -21 298 -28 290 -15 -3 5
-25 10 -48 11 l-42 1 38 10 c39 10 50 33 20 41 -13 3 -11 5 7 7 23 1 23 2 5
10 -11 5 -14 9 -7 9 15 1 17 119 2 173 l-11 37 -56 -20 c-65 -22 -63 -22 -63
-10 0 5 33 20 73 33 l72 23 -87 3 c-76 2 -87 5 -85 20 5 34 19 42 70 44 41 1
44 2 16 5 l-36 4 -8 67 c-4 37 -9 119 -11 183 -2 64 -6 123 -10 133 -3 9 -3
36 0 59 15 88 17 167 5 167 -8 0 -10 22 -4 81 3 45 9 88 12 97 6 13 34 14 227
9 264 -8 476 5 561 33 33 11 49 18 35 15 -86 -17 -277 -27 -415 -22 -186 6
-374 33 -382 54 -4 10 -9 8 -17 -9 -17 -33 -50 -34 -75 -2 -11 15 -21 25 -21
22z m57 -430 c-1 -40 -3 -10 -3 67 0 77 1 110 3 73 2 -37 2 -100 0 -140z m-10
-390 c-1 -46 -3 -11 -3 77 0 88 2 125 3 83 2 -42 2 -114 0 -160z"/>
<path d="M2740 3709 c-20 -10 -28 -18 -18 -19 9 0 18 -9 20 -20 2 -15 7 -10
20 20 9 22 16 40 15 39 -1 -1 -18 -9 -37 -20z"/>
<path d="M14980 3702 c0 -9 5 -24 10 -32 8 -13 10 -12 10 3 0 21 1 21 48 2 69
-29 126 -36 352 -45 199 -7 300 -3 377 15 13 3 29 -2 39 -12 10 -10 20 -18 23
-18 3 0 4 -37 2 -81 -2 -60 1 -88 12 -105 20 -33 29 -129 32 -359 1 -135 6
-195 14 -198 6 -2 9 -8 5 -13 -3 -5 -47 -10 -97 -10 l-92 -1 60 -9 c33 -5 79
-12 101 -14 30 -4 43 -11 47 -25 4 -17 0 -20 -36 -21 l-42 -2 40 -8 c24 -4 0
-5 -57 -2 -54 3 -98 3 -98 0 0 -2 50 -15 112 -28 69 -14 119 -30 130 -41 24
-24 24 -46 0 -24 -16 14 -49 22 -116 29 -31 3 -27 -17 9 -43 18 -14 42 -43 52
-64 9 -21 23 -45 30 -52 11 -10 4 -14 -34 -19 -27 -4 -59 -10 -73 -15 -22 -8
-21 -9 13 -9 37 -1 73 -22 60 -35 -4 -3 2 -7 13 -7 10 -1 -46 -10 -126 -20
-142 -17 -143 -17 -45 -13 92 5 181 13 495 45 63 7 151 15 195 19 l80 7 -105
1 c-58 1 -169 5 -246 9 l-142 6 -6 59 c-4 32 -18 87 -31 123 l-25 65 26 17
c25 16 26 20 20 77 -6 57 6 369 20 532 l7 71 -39 19 c-36 18 -39 22 -42 66 -2
33 5 66 21 108 26 64 25 70 -5 43 -18 -16 -22 -16 -46 -2 -24 14 -35 13 -113
-2 -136 -28 -330 -42 -473 -34 -159 8 -294 28 -335 48 -28 14 -31 14 -31 -1z
m947 -839 c-3 -10 -5 -4 -5 12 0 17 2 24 5 18 2 -7 2 -21 0 -30z"/>
<path d="M10083 3623 c-32 -4 -33 -6 -33 -48 0 -44 0 -44 30 -39 59 12 120 -5
163 -46 37 -36 41 -38 62 -24 44 29 60 108 28 136 -25 22 -60 31 -68 18 -4 -6
-21 -8 -38 -6 -62 9 -112 12 -144 9z"/>
<path d="M2340 3490 c-14 -4 -41 -8 -60 -9 -42 -1 -63 -17 -51 -40 9 -17 24
-163 42 -411 7 -109 7 -163 0 -182 -9 -24 -7 -31 11 -48 12 -11 25 -20 30 -20
11 0 10 -52 -4 -142 -6 -43 -10 -79 -7 -81 2 -1 54 0 114 4 l110 5 -92 2 c-66
1 -93 6 -94 15 -2 27 2 103 7 118 5 18 61 42 142 60 28 7 52 15 52 18 0 3 -27
4 -60 3 -48 -3 -60 -1 -60 11 0 9 -3 22 -6 31 -4 11 3 16 33 19 l38 4 -35 1
-35 2 2 202 c2 112 8 254 14 317 9 93 8 115 -3 122 -16 10 -54 10 -88 -1z"/>
<path d="M15303 3483 c-10 -7 -11 -77 -6 -311 5 -263 8 -302 22 -305 9 -3 -15
-6 -54 -7 l-70 -3 78 -10 c65 -8 77 -12 77 -28 0 -34 -88 -56 -154 -38 -21 6
-40 8 -43 6 -4 -5 47 -22 134 -46 31 -8 47 -20 58 -41 20 -39 19 -50 -5 -45
-17 3 -20 -2 -20 -30 0 -42 -22 -65 -61 -65 -54 0 -20 -18 49 -26 l67 -8 -115
-18 c-90 -15 -158 -18 -312 -16 -116 2 -186 0 -170 -5 40 -13 373 -11 482 2
52 6 109 12 127 13 l31 2 7 78 c6 63 4 88 -11 129 -16 44 -17 52 -4 60 8 4 21
13 29 18 9 6 14 36 16 102 3 100 27 336 49 482 l13 89 -26 10 c-35 13 -173 21
-188 11z"/>
<path d="M9165 2971 l-30 -6 -7 -230 c-8 -232 -4 -350 12 -360 5 -3 11 23 14
57 3 35 15 164 26 288 12 124 23 233 26 243 3 9 2 16 -3 16 -4 -1 -21 -4 -38
-8z"/>
<path d="M2558 2783 c7 -3 16 -2 19 1 4 3 -2 6 -13 5 -11 0 -14 -3 -6 -6z"/>
<path d="M0 2575 l0 -35 68 1 c37 0 96 6 132 14 61 12 63 13 23 14 -24 1 -43
6 -43 12 0 5 -5 7 -11 4 -5 -4 -22 -2 -37 3 -15 6 -51 13 -79 17 l-53 6 0 -36z"/>
<path d="M2303 2515 c5 -15 242 -33 432 -33 l170 1 -195 8 c-107 5 -243 14
-303 21 -71 9 -106 10 -104 3z"/>
<path d="M15460 2440 c24 -8 137 -14 129 -6 -2 2 -38 6 -79 9 -46 4 -65 3 -50
-3z"/>
<path d="M9078 2093 c7 -3 16 -2 19 1 4 3 -2 6 -13 5 -11 0 -14 -3 -6 -6z"/>
<path d="M8683 2032 c-18 -2 -33 -7 -33 -13 0 -5 42 -9 95 -9 103 0 176 -12
244 -42 24 -10 52 -16 60 -13 10 4 -19 18 -74 36 -87 29 -220 48 -292 41z"/>
<path d="M8564 1861 c-36 -22 -71 -74 -80 -119 -6 -28 -4 -31 22 -35 26 -4 25
-4 -6 -6 -35 -1 -36 -2 -32 -37 3 -24 0 -39 -9 -45 -12 -7 -11 -11 4 -26 15
-16 40 -18 180 -21 89 -2 203 1 252 6 88 9 85 9 -80 11 -93 1 -176 5 -183 10
-11 6 -11 13 0 37 7 16 17 32 22 36 10 6 -10 13 -64 21 -14 3 2 5 35 7 35 1
52 5 40 8 -17 6 -20 17 -22 70 -1 45 -7 70 -19 83 -21 23 -22 23 -60 0z"/>
<path d="M9625 1860 c-12 -19 -18 -137 -8 -143 5 -3 20 -3 33 0 21 6 22 9 16
67 -6 62 -27 99 -41 76z"/>
<path d="M9633 1693 c9 -2 23 -2 30 0 6 3 -1 5 -18 5 -16 0 -22 -2 -12 -5z"/>
<path d="M9607 1673 c-13 -21 10 -34 47 -28 42 8 58 25 24 25 -13 0 -33 3 -44
6 -12 3 -24 2 -27 -3z"/>
<path d="M9405 1631 c121 -48 417 -81 565 -64 l85 10 -126 2 c-161 1 -323 18
-418 42 -76 19 -147 26 -106 10z"/>
<path d="M0 181 l0 -181 1383 1 c1242 2 1522 8 1072 23 -82 3 -370 8 -640 11
-269 3 -551 11 -625 17 -222 17 -231 17 -325 18 -49 1 -84 4 -77 7 6 2 12 13
12 24 0 18 -9 19 -140 19 -133 0 -140 1 -140 20 0 18 -7 20 -80 20 -73 0 -80
2 -80 20 0 13 -7 20 -20 20 -13 0 -20 7 -20 20 0 11 6 20 13 20 25 0 -18 20
-45 20 -16 0 -28 5 -28 10 0 6 -13 10 -30 10 -23 0 -30 4 -30 20 0 13 -7 20
-20 20 -11 0 -20 4 -20 9 0 9 -33 17 -117 27 l-43 6 0 -181z"/>
<path d="M960 130 c0 -5 -9 -10 -20 -10 -13 0 -20 -7 -20 -20 0 -19 7 -20 100
-20 93 0 100 1 100 20 0 17 -7 20 -40 20 -22 0 -40 5 -40 10 0 6 -18 10 -40
10 -22 0 -40 -4 -40 -10z"/>
</g>
</svg>
